<svg width="14" height="14" viewBox="0 0 14 14" fill="none" xmlns="http://www.w3.org/2000/svg">
<path d="M4.2 14H2.1C0.94199 14 0 13.058 0 11.9V9.8C0 8.64199 0.94199 7.7 2.1 7.7H4.2C5.35801 7.7 6.3 8.64199 6.3 9.8V11.9C6.3 13.058 5.35801 14 4.2 14ZM4.9 9.8C4.9 9.41411 4.58623 9.1 4.2 9.1H2.1C1.71377 9.1 1.4 9.41411 1.4 9.8V11.9C1.4 12.2859 1.71377 12.6 2.1 12.6H4.2C4.58623 12.6 4.9 12.2859 4.9 11.9V9.8Z" fill="white"/>
<path d="M11.8992 14H9.79922C8.64121 14 7.69922 13.058 7.69922 11.9V9.8C7.69922 8.64199 8.64121 7.7 9.79922 7.7H11.8992C13.0572 7.7 13.9992 8.64199 13.9992 9.8V11.9C13.9992 13.058 13.0572 14 11.8992 14ZM12.5992 9.8C12.5992 9.41411 12.2854 9.1 11.8992 9.1H9.79922C9.41299 9.1 9.09922 9.41411 9.09922 9.8V11.9C9.09922 12.2859 9.41299 12.6 9.79922 12.6H11.8992C12.2854 12.6 12.5992 12.2859 12.5992 11.9V9.8Z" fill="white"/>
<path d="M4.2 6.30005H2.1C0.94199 6.30005 0 5.35806 0 4.20005V2.10005C0 0.94204 0.94199 5.06872e-05 2.1 5.06872e-05H4.2C5.35801 5.06872e-05 6.3 0.94204 6.3 2.10005V4.20005C6.3 5.35806 5.35801 6.30005 4.2 6.30005ZM4.9 2.10005C4.9 1.71416 4.58623 1.40005 4.2 1.40005H2.1C1.71377 1.40005 1.4 1.71416 1.4 2.10005V4.20005C1.4 4.58594 1.71377 4.90005 2.1 4.90005H4.2C4.58623 4.90005 4.9 4.58594 4.9 4.20005V2.10005Z" fill="white"/>
<path d="M11.8992 6.30005H9.79922C8.64121 6.30005 7.69922 5.35806 7.69922 4.20005V2.10005C7.69922 0.94204 8.64121 5.06872e-05 9.79922 5.06872e-05H11.8992C13.0572 5.06872e-05 13.9992 0.94204 13.9992 2.10005V4.20005C13.9992 5.35806 13.0572 6.30005 11.8992 6.30005ZM12.5992 2.10005C12.5992 1.71416 12.2854 1.40005 11.8992 1.40005H9.79922C9.41299 1.40005 9.09922 1.71416 9.09922 2.10005V4.20005C9.09922 4.58594 9.41299 4.90005 9.79922 4.90005H11.8992C12.2854 4.90005 12.5992 4.58594 12.5992 4.20005V2.10005Z" fill="white"/>
</svg>
