<?xml version="1.0" encoding="utf-8"?>
<!-- Generator: Adobe Illustrator 25.4.1, SVG Export Plug-In . SVG Version: 6.00 Build 0)  -->
<svg version="1.1" id="svg1287" xmlns:svg="http://www.w3.org/2000/svg"
	 xmlns="http://www.w3.org/2000/svg" xmlns:xlink="http://www.w3.org/1999/xlink" x="0px" y="0px" viewBox="0 0 682.7 682.7"
	 style="enable-background:new 0 0 682.7 682.7;" xml:space="preserve">
<style type="text/css">
	.st0{fill:#FFFFFF;}
	.st1{fill:none;stroke:#FFFFFF;stroke-width:26.6667;stroke-linecap:round;stroke-linejoin:round;stroke-miterlimit:13.3333;}
</style>
<g id="g1303" transform="translate(333.272,392.9761)">
	<path id="path1305" class="st0" d="M111.1-115.4c7.1-2.1,14.5,2,16.6,9c2.1,7.1-2,14.5-9,16.6c-7.1,2.1-14.5-2-16.6-9
		C100-105.9,104-113.3,111.1-115.4"/>
</g>
<g id="g1307" transform="translate(220.417,297.1362)">
	<path id="path1309" class="st1" d="M73.5,108.2L-72,149.5l-33.1-116.4L40.4-8.2L73.5,108.2z"/>
</g>
<g id="g1311" transform="translate(90.3486,333.5391)">
	<path id="path1313" class="st1" d="M30.1,23.3L-32.2,41l18.3,64.6l62.3-17.7"/>
</g>
<g id="g1315" transform="translate(324.1851,426.2515)">
	<path id="path1317" class="st1" d="M108.1-193.1l-20.4-71.8l-151,127.5"/>
</g>
<g id="g1319" transform="translate(220.417,297.1362)">
	<path id="path1321" class="st1" d="M73.5,108.2L269,137.3l-24.6-86.7"/>
</g>
<g id="g1323" transform="translate(171.6675,283.5664)">
	<path id="path1325" class="st1" d="M57.2,139.9l-58,16.8l31.3,53c6.8,11.5,20.5,17,33.4,13.2c18.3-5.3,26.8-26.5,17-43L57.2,139.9z
		"/>
</g>
<g id="g1327" transform="translate(455.1064,410.894)">
	<path id="path1329" class="st1" d="M151.7-157.2l-31.6,8.9"/>
</g>
<g id="g1331" transform="translate(397.6938,501.5)">
	<path id="path1333" class="st1" d="M132.6-368.6l-22.9,23.5"/>
</g>
<g id="g1335" transform="translate(453.5415,303.6411)">
	<path id="path1337" class="st1" d="M151.2,93l-31.8-8.1"/>
</g>
</svg>
