<svg width="19" height="23" viewBox="0 0 11 15" fill="none" xmlns="http://www.w3.org/2000/svg">
  <path
    d="M10.645 7.46388C9.56533 4.65823 5.72132 4.50695 6.64966 0.429131C6.71843 0.126561 6.39523 -0.107243 6.13392 0.0509188C3.63771 1.52251 1.84293 4.47256 3.3489 8.33721C3.47268 8.65353 3.10134 8.94922 2.83315 8.74292C1.58849 7.80083 1.45784 6.44614 1.56786 5.47655C1.60912 5.11896 1.14151 4.94705 0.942092 5.24274C0.474484 5.95791 0 7.11317 0 8.85295C0.26131 12.7038 3.51394 13.8866 4.68296 14.0379C6.35397 14.2511 8.16251 13.9416 9.46218 12.752C10.8925 11.4248 11.4151 9.3068 10.645 7.46388ZM4.26348 10.9228C5.25371 10.6821 5.76258 9.96696 5.90011 9.33431C6.12704 8.35096 5.23996 7.38824 5.83822 5.83413C6.06515 7.12005 8.08687 7.92461 8.08687 9.32743C8.14188 11.0672 6.25769 12.5594 4.26348 10.9228Z"
    fill="#00c820" />
</svg>
