<?xml version="1.0" encoding="utf-8"?>
<!-- Generator: Adobe Illustrator 25.4.1, SVG Export Plug-In . SVG Version: 6.00 Build 0)  -->
<svg version="1.1" id="Capa_1" xmlns="http://www.w3.org/2000/svg" xmlns:xlink="http://www.w3.org/1999/xlink" x="0px" y="0px"
	 viewBox="0 0 512 512" style="enable-background:new 0 0 512 512;" xml:space="preserve">
<style type="text/css">
	.st0{fill:#FFFFFF;}
</style>
<g>
	<g>
		<path class="st0" d="M421,0H91c-8.3,0-15,6.7-15,15v482c0,8.3,6.7,15,15,15h180c91,0,165-74,165-165V15C436,6.7,429.3,0,421,0z
			 M299,479.1c10.6-14,17-31.4,17-50.3V392h45c15.1,0,29.2-4.5,41-12.2C389.5,429.5,349.4,468.4,299,479.1L299,479.1z M406,317
			c0,24.8-20.2,45-45,45h-60c-8.3,0-15,6.7-15,15v51.8c0,29.4-23.9,53.2-53.2,53.2H106V30h300V317z M151,362h90c8.3,0,15-6.7,15-15
			s-6.7-15-15-15h-90c-8.3,0-15,6.7-15,15S142.7,362,151,362z M233.9,137.8l-20.4,20.4c-5.9,5.9-5.9,15.4,0,21.2
			c5.9,5.9,15.4,5.9,21.2,0l20.4-20.4l21.2,21.2c5.9,5.9,15.4,5.9,21.2,0s5.9-15.4,0-21.2l-21.2-21.2l22.1-22.1
			c5.9-5.9,5.9-15.4,0-21.2c-5.9-5.9-15.4-5.9-21.2,0l-22.1,22.1l-21.2-21.2c-5.9-5.9-15.4-5.9-21.2,0s-5.9,15.4,0,21.2L233.9,137.8
			z M151,242h210c8.3,0,15-6.7,15-15s-6.7-15-15-15H151c-8.3,0-15,6.7-15,15S142.7,242,151,242z M151,302h210c8.3,0,15-6.7,15-15
			s-6.7-15-15-15H151c-8.3,0-15,6.7-15,15S142.7,302,151,302z"/>
	</g>
</g>
</svg>
