<svg width="71" height="71" viewBox="0 0 71 71" fill="none" xmlns="http://www.w3.org/2000/svg">
<g clip-path="url(#clip0_2473_4)">
<path d="M61.9274 0H9.07261C4.06988 0 0 4.07002 0 9.07275V61.9274C0 66.93 4.06988 71 9.07261 71H61.9274C66.9301 71 71 66.93 71 61.9273V9.07275C71 4.07002 66.9301 0 61.9274 0ZM66.8179 61.9274C66.8179 64.6241 64.624 66.8179 61.9274 66.8179H9.07261C6.37586 66.8179 4.18193 64.624 4.18193 61.9274V54.2995L17.9458 42.5885C18.4481 42.1611 19.1808 42.1571 19.6878 42.5781L28.3096 49.7374C29.1409 50.4276 30.3612 50.371 31.1252 49.6063L51.611 29.0892C51.9813 28.7183 52.413 28.6822 52.6383 28.6937C52.863 28.7052 53.2894 28.7854 53.6198 29.1924L66.8181 45.4433L66.8179 61.9274ZM66.8179 38.8094L56.866 26.5555C55.8791 25.3402 54.4162 24.5972 52.8526 24.5169C51.29 24.4379 49.7578 25.0261 48.6516 26.1341L29.5138 45.3015L22.3597 39.3609C20.2853 37.6383 17.2895 37.6562 15.2357 39.4036L4.18193 48.8086V9.07275C4.18193 6.37599 6.37586 4.18207 9.07261 4.18207H61.9274C64.6241 4.18207 66.8179 6.37599 66.8179 9.07275V38.8094Z" fill="#686868"/>
<path d="M22.3498 8.73535C16.7898 8.73535 12.2666 13.2588 12.2666 18.8186C12.2666 24.3785 16.7899 28.9018 22.3498 28.9018C27.9098 28.9018 32.4331 24.3785 32.4331 18.8186C32.4331 13.2587 27.9099 8.73535 22.3498 8.73535ZM22.3498 24.7199C19.0958 24.7199 16.4485 22.0725 16.4485 18.8186C16.4485 15.5645 19.0958 12.9173 22.3498 12.9173C25.6039 12.9173 28.2512 15.5647 28.2512 18.8186C28.2512 22.0725 25.6039 24.7199 22.3498 24.7199Z" fill="#686868"/>
</g>
<defs>
<clipPath id="clip0_2473_4">
<rect width="71" height="71" fill="white"/>
</clipPath>
</defs>
</svg>
