<svg xmlns="http://www.w3.org/2000/svg" viewBox="0 0 1455.7 278.73">
  <defs>
    <style>
      .cls-1 {
        fill: #43b555;
      }

      .cls-2 {
        fill: #fff;
      }

      .cls-3 {
        fill: #17aa4c;
      }
    </style>
  </defs>
  <g id="Layer_2" data-name="Layer 2">
    <g id="Layer_1-2" data-name="Layer 1">
      <g>
        <g>
          <path class="cls-1" d="M131,252.75c-24,0-48,.08-72.07,0a35.62,35.62,0,0,1-8.12-1.4C21.49,244.29.1,217.22.1,187.26.1,155.82.44,124.38,0,93c-.43-30.43,22-56.43,53.1-61.78a73.61,73.61,0,0,1,12.14-1c32.18-.07,64.35-.23,96.52,0,21.3.17,38.51,8.93,51.2,26.16.54.73,1.05,1.5,1.53,2.28A8.33,8.33,0,0,1,215,60l-108.3,92.57L65.38,94.08l-38.6,30.06c8.65,10.59,17.17,21,25.67,31.44Q75.07,183.32,97.66,211c1.32,1.62,2.77,3.13,4.16,4.69.54,1.25.82,2.72,1.66,3.72,6.66,7.83,13.49,15.51,20.12,23.36C126.25,246,128.52,249.42,131,252.75Z"/>
          <path class="cls-2" d="M1099,133.91V46.52h30.6V229.71h-30.44v-13a12.06,12.06,0,0,0-1.48,1.17c-10.36,13.25-24.32,17.1-40.31,14.9-29.63-4.07-46.68-28.49-47.4-55.05-.57-21,6.22-39,24-51.37,13.72-9.58,29.12-11.17,45.11-7C1086.41,121.3,1091.2,125.05,1099,133.91Zm-57,41c-.14,17,12.48,30.24,28.53,30.9s31-10.58,31.58-30.33c.48-17-12.47-30.48-29-30.65C1054.85,144.67,1042.07,157,1041.93,174.94Z"/>
          <path class="cls-3" d="M131,252.75c-2.45-3.33-4.72-6.79-7.37-9.94-6.63-7.85-13.46-15.53-20.12-23.36-.84-1-1.12-2.47-1.66-3.72L223.36,108.37c.11,1.82.23,2.95.23,4.08,0,25,.07,50,0,75-.1,30.66-20.69,57.32-49.86,64-6.17,1.41-12.75,1.26-19.15,1.41C146.72,253.07,138.84,252.81,131,252.75Z"/>
          <path class="cls-2" d="M588.43,229.86H557.71V217.45l-1.23-.86a8.18,8.18,0,0,1-.85,2c-10.2,12.51-23.75,16.24-39.13,14.2-35-4.64-50.78-36.22-47.71-64.38,1.87-17.22,8.77-31.78,23.26-41.82s30.5-11.87,47.24-6.66c7.33,2.28,13,7.09,18,13.85V121h31.14Zm-57.78-85c-17.48,0-30.08,12.66-30.08,30.28,0,17.46,12.61,30.55,29.48,30.58,17.68,0,30.48-12.7,30.5-30.38S548,144.88,530.65,144.86Z"/>
          <path class="cls-2" d="M867.73,101.1H836.51c0-3.4.07-6.64,0-9.87-.31-12.17-7.14-19.37-18.74-19.83-13-.52-21.32,5.84-22.13,18-.69,10.27-.14,20.62-.14,31.22h27.85V147H795.55v82.63h-31.2V147.36H753V120.84h11.21c0-7.35-.11-14.37,0-21.38.14-7.18-.3-14.52,1-21.52,3.07-16.69,14-26.84,29.85-31.59a74.84,74.84,0,0,1,43.44.21c18.34,5.45,28.93,20,29.25,39.54C867.8,91,867.73,96,867.73,101.1Z"/>
          <path class="cls-2" d="M998.57,180.38H917.39C915.07,192,924,205,936.13,208c12.58,3.1,24-1.07,31.93-11.55a4,4,0,0,1,3-1.56c8.66,1.26,17.29,2.75,27,4.34-2.57,4.4-4.59,8.58-7.28,12.29-9.58,13.24-23,19.94-39,21.4-14.32,1.3-28.38,0-40.91-8-20.09-12.82-27.47-31.81-25.88-54.79,1.21-17.42,8.18-32,22.53-42.6,11.91-8.77,25.6-10.81,39.94-10,27.34,1.49,46.13,18.78,49.82,45.94C998,168.91,998.12,174.51,998.57,180.38ZM918.22,160.7h50.52c-1.28-12.15-12.53-21.68-25.42-21.64C930.59,139.1,919.37,148.67,918.22,160.7Z"/>
          <path class="cls-2" d="M393.23,62.33V90.52H355.56V229.71H322.63v-139H285V62.33Z"/>
          <path class="cls-2" d="M693.69,154.08c-17.74-14.62-40.43-10-49,.61-9.3,11.51-9.33,29.58.43,40.92,8.67,10.08,29.39,16.25,48.56.8v15.45c0,4.06.14,8.13-.09,12.18a4.43,4.43,0,0,1-1.87,3.26c-30.48,14.6-74,2.23-84.05-35.73-7.68-29,5.78-62.71,38.12-71.8a66.74,66.74,0,0,1,45,2.83c1.23.51,2.74,2.23,2.77,3.42C693.79,135.16,693.69,144.31,693.69,154.08Z"/>
          <path class="cls-2" d="M468,120.05c-1.29,9.29-2.6,18.67-3.86,27.67-4.35-1-8.43-2.47-12.6-2.76-18.59-1.3-27.82,10.52-28.11,26.69-.31,17.8-.09,35.61-.1,53.42v4.58H392.38V120.94h30.88v14.35C438.68,117.74,452.05,113.2,468,120.05Z"/>
          <path class="cls-2" d="M867.56,229.83H837V121h30.57Z"/>
          <path class="cls-2" d="M710.44,120.84h30.34V229.69H710.44Z"/>
          <path class="cls-2" d="M707.16,75.05A18.36,18.36,0,0,1,725.43,56.5a18.46,18.46,0,1,1,.15,36.91A18.2,18.2,0,0,1,707.16,75.05Z"/>
        </g>
        <g>
          <path class="cls-2" d="M1438.44,2.93a17.26,17.26,0,1,0,17.26,17.26A17.31,17.31,0,0,0,1438.44,2.93Zm0,31.07a13.81,13.81,0,1,1,13.81-13.81A13.84,13.84,0,0,1,1438.44,34Z"/>
          <path class="cls-2" d="M1441.72,21.57a5.1,5.1,0,0,0,2.07-1.2,4.71,4.71,0,0,0,1.55-3.63,4.67,4.67,0,0,0-1.55-3.62,4.68,4.68,0,0,0-3.63-1.56h-6.9a1.64,1.64,0,0,0-1.73,1.73V27.1a1.73,1.73,0,0,0,3.46,0V21.92h2.59l4.66,6.21a1.56,1.56,0,0,0,1.38.69,1.49,1.49,0,0,0,1-.51,1.86,1.86,0,0,0,.35-2.42Zm-1.56-3.1H1435V15h5.17a1.76,1.76,0,0,1,1.73,1.72,1.78,1.78,0,0,1-1.73,1.73Z"/>
        </g>
        <g>
          <path class="cls-2" d="M1320,93.41q2.65,3.36,2.66,10.85v10.65q0,7.89-3.25,11.24t-9.76,3.35h-7.89V90.06h9.86Q1317.34,90.06,1320,93.41Z"/>
          <path class="cls-2" d="M1427.6,61.75,1325.67,2.9a21.66,21.66,0,0,0-21.66,0L1202.08,61.75a21.68,21.68,0,0,0-10.83,18.77V129h25.31V94.14h20.15V129H1262v20.15h-25.32v35.41h-20.15V149.18h-25.31v49A21.68,21.68,0,0,0,1202.08,217L1304,275.82a21.66,21.66,0,0,0,21.66,0L1427.6,217a21.67,21.67,0,0,0,10.84-18.77V80.52A21.67,21.67,0,0,0,1427.6,61.75ZM1324.83,208.39a31.46,31.46,0,0,1-1.58-6.31,96.21,96.21,0,0,1-.39-10.65V166.18q0-9.47-3.06-13.21c-2-2.49-5.55-3.75-10.55-3.75h-7.49v59.17h-21.7v-138h32.15q16.76,0,24.45,7.79t7.69,24v8.48q0,21.5-14.19,27.22v.39a17,17,0,0,1,11.14,9.66q3.26,7.31,3.25,19.53v24.25a90.56,90.56,0,0,0,.4,9.57,23.73,23.73,0,0,0,2,7.2Zm95.65-118.33H1397.8V208.39h-21.69V90.06h-22.68V70.34h67Z"/>
        </g>
      </g>
    </g>
  </g>
</svg>
